<?xml version="1.0" standalone="no"?>
<!DOCTYPE svg PUBLIC "-//W3C//DTD SVG 20010904//EN"
 "http://www.w3.org/TR/2001/REC-SVG-20010904/DTD/svg10.dtd">
<svg version="1.0" xmlns="http://www.w3.org/2000/svg"
 width="1024.000000pt" height="1024.000000pt" viewBox="0 0 1024.000000 1024.000000"
 preserveAspectRatio="xMidYMid meet">
<metadata>
Created by potrace 1.14, written by Peter Selinger 2001-2017
</metadata>
<g transform="translate(0.000000,1024.000000) scale(0.100000,-0.100000)"
fill="#000000" stroke="none">
<path d="M7819 8806 c-47 -77 -209 -196 -388 -286 -116 -58 -288 -120 -351
-127 -48 -5 -64 -11 -74 -27 -7 -12 -41 -73 -76 -136 -179 -326 -435 -658
-726 -940 -175 -169 -309 -283 -634 -538 -294 -231 -391 -311 -595 -491 -71
-63 -120 -103 -107 -89 20 22 21 26 7 38 -8 7 -12 16 -9 21 3 5 2 15 -3 22 -4
6 -8 18 -9 25 -3 20 -8 22 -24 12 -13 -8 -12 -10 3 -10 10 0 16 -4 12 -10 -10
-16 -57 11 -50 29 4 11 0 9 -16 -5 -12 -10 -19 -13 -15 -7 4 7 -1 24 -11 38
-18 25 -40 35 -27 13 5 -9 2 -9 -9 1 -13 11 -17 11 -17 1 0 -8 -3 -11 -6 -7
-9 9 22 48 31 39 5 -4 5 -2 1 5 -3 7 24 72 62 145 74 143 179 363 384 798 274
584 332 701 362 735 27 30 244 160 253 151 2 -2 -44 -101 -102 -222 -58 -120
-103 -216 -101 -213 3 3 48 75 99 160 144 238 197 322 214 341 8 9 67 43 130
74 63 32 127 70 142 85 16 15 56 81 90 146 34 65 77 136 96 158 38 43 44 65
19 65 -64 0 -315 -107 -489 -207 -415 -241 -745 -519 -1238 -1043 -80 -85
-148 -152 -152 -148 -11 11 4 30 130 165 214 230 408 424 520 520 61 53 109
99 107 104 -1 5 4 8 10 7 7 -2 12 3 10 10 -1 8 2 11 7 8 16 -10 20 8 6 27 -12
17 -13 17 -20 0 -5 -10 -7 -22 -6 -26 1 -5 -3 -6 -8 -2 -6 3 -8 12 -4 20 7 19
-33 21 -40 3 -4 -10 -7 -10 -15 0 -7 11 -12 11 -24 -2 -9 -8 -18 -12 -22 -9
-4 4 7 19 24 35 17 15 28 29 23 29 -4 1 -19 4 -33 6 -22 4 -53 8 -98 12 -7 0
-10 6 -6 12 5 8 1 8 -14 0 -31 -16 -42 -13 -42 12 0 18 -2 19 -10 7 -9 -14
-15 -7 -11 14 1 5 -4 4 -12 -2 -8 -7 -17 -9 -20 -5 -4 3 -7 1 -7 -6 0 -7 -4
-10 -9 -7 -12 8 -365 -354 -492 -504 -101 -119 -283 -350 -418 -527 -65 -87
-100 -113 -53 -40 56 87 117 174 166 237 246 318 400 494 582 664 82 77 159
149 171 160 12 12 33 32 47 45 24 21 28 49 5 36 -16 -11 -10 7 9 22 9 8 11 12
5 8 -7 -3 -21 -2 -30 4 -17 9 -16 10 4 18 17 6 20 12 13 23 -6 9 -13 11 -17 5
-5 -5 -13 -11 -20 -12 -13 -3 -12 22 2 34 4 4 5 2 1 -4 -8 -15 3 -17 22 -4 11
7 10 10 -3 15 -19 7 -59 -17 -47 -29 4 -5 1 -5 -6 -1 -15 9 -131 -56 -286
-161 -61 -41 -132 -86 -159 -100 -55 -27 -141 -42 -151 -24 -10 15 13 53 26
45 7 -4 8 -3 4 4 -10 17 155 149 409 327 124 86 228 161 231 166 18 30 -103
-9 -249 -79 -278 -135 -555 -366 -799 -668 -161 -199 -357 -494 -446 -671 -53
-104 -76 -118 -31 -18 92 205 257 461 456 706 29 36 53 70 53 75 0 5 -7 -2
-16 -14 -8 -12 -20 -22 -26 -22 -6 0 -20 -8 -31 -17 -11 -10 -17 -13 -14 -6
11 18 -35 3 -60 -19 -12 -12 -19 -27 -16 -35 5 -13 3 -13 -16 -3 -20 10 -23 8
-34 -19 -11 -31 -27 -42 -27 -19 0 6 -6 3 -14 -8 -11 -14 -11 -21 -3 -27 8 -6
5 -6 -7 -3 -11 4 -26 0 -36 -9 -12 -11 -20 -13 -25 -6 -11 19 -33 12 -66 -21
-17 -18 -29 -26 -26 -16 9 25 -3 29 -26 7 -12 -11 -27 -17 -34 -15 -6 3 -14 0
-17 -7 -3 -8 -5 -7 -5 2 -1 8 20 46 47 85 68 101 68 102 37 78 -15 -12 -34
-22 -41 -22 -7 0 -16 -5 -20 -12 -5 -7 -3 -8 7 -3 12 8 12 6 0 -8 -15 -18 -26
-23 -16 -7 3 6 2 10 -2 10 -10 0 -43 -37 -43 -48 0 -4 -10 -16 -22 -26 -19
-17 -20 -17 -14 -1 4 13 2 16 -9 11 -9 -3 -15 0 -15 11 0 12 -3 13 -15 3 -8
-6 -20 -8 -26 -4 -7 4 -9 3 -6 -3 4 -6 -1 -14 -11 -18 -31 -14 -41 -13 -35 2
5 12 7 12 14 1 6 -9 9 -6 9 12 0 21 50 91 138 195 9 11 26 34 36 50 18 27 14
25 -34 -15 -149 -125 -304 -289 -413 -439 -26 -35 -47 -56 -47 -48 0 32 44
156 81 227 39 75 140 218 166 233 7 4 13 12 13 17 0 9 20 36 48 66 8 8 19 11
25 7 8 -4 7 -1 -1 9 -11 14 -10 17 5 20 15 3 15 5 3 10 -9 3 -29 -1 -45 -8
-17 -8 -22 -12 -12 -9 21 5 22 -2 3 -21 -9 -8 -16 -10 -18 -3 -2 6 -12 7 -22
3 -19 -7 -19 -8 0 -15 16 -6 15 -8 -8 -8 -15 -1 -30 -6 -33 -11 -4 -6 -11 -7
-17 -4 -6 4 -8 3 -5 -3 3 -5 -14 -30 -40 -54 -91 -88 -193 -268 -234 -414 -33
-115 -33 -317 -1 -428 25 -86 75 -193 132 -277 44 -66 201 -298 315 -465 235
-343 399 -663 505 -985 123 -370 167 -723 136 -1077 -17 -195 -19 -235 -6
-188 4 17 17 65 29 108 55 208 160 415 359 707 295 434 749 886 1277 1272 475
347 888 592 1587 943 707 355 967 507 1333 781 83 61 176 138 209 170 l58 59
3 278 3 277 -248 0 -248 0 -7 -30 c-22 -101 -263 -372 -490 -551 -89 -70 -285
-202 -285 -192 0 5 -5 0 -11 -9 -5 -10 -18 -18 -28 -18 -10 0 -24 -7 -31 -15
-7 -9 -15 -13 -18 -10 -3 3 -13 -2 -22 -10 -16 -14 -18 -14 -24 0 -3 9 -2 14
3 11 5 -3 12 1 15 10 5 13 9 14 21 4 13 -11 14 -10 10 1 -4 10 21 32 75 68
154 103 295 244 410 413 84 121 150 251 150 293 l0 35 -112 0 -113 -1 -26 -43z
m-2904 -387 c-3 -4 -12 -6 -20 -3 -8 4 -13 10 -10 15 3 4 12 6 20 3 8 -4 13
-10 10 -15z m3455 -70 c-259 -244 -531 -432 -1055 -729 -368 -209 -604 -353
-900 -549 -423 -281 -560 -379 -647 -463 -46 -44 -139 -125 -208 -180 -438
-348 -791 -678 -1050 -978 -68 -80 -128 -144 -133 -142 -5 1 -6 -1 -4 -6 3 -4
-17 -37 -45 -72 -28 -36 -56 -74 -64 -85 -12 -16 -16 -17 -26 -6 -7 8 -8 11
-3 8 6 -3 19 16 29 41 23 56 35 74 47 66 5 -3 9 0 9 6 0 6 4 9 8 6 5 -3 9 1 9
9 0 8 -5 11 -11 8 -6 -4 -4 2 6 13 19 22 5 43 -25 38 -15 -2 -16 0 -6 12 6 7
15 11 20 8 5 -3 9 0 9 5 0 21 2 26 12 38 6 7 14 10 19 7 5 -3 9 0 9 5 0 6 7
11 16 11 8 0 12 5 9 10 -4 6 -12 7 -18 3 -7 -4 -6 0 2 10 15 18 26 23 16 7 -9
-15 4 -12 21 4 7 8 15 24 17 35 4 24 14 36 30 36 7 1 11 6 10 12 -3 12 15 12
34 0 9 -6 11 -3 6 9 -5 12 -3 15 6 9 10 -6 11 -3 1 15 -7 13 -8 20 -2 16 6 -3
14 -1 17 5 4 5 14 8 22 4 13 -4 14 -3 3 10 -7 8 -16 12 -21 9 -19 -11 -7 4 32
41 23 22 38 33 34 25 -8 -13 -7 -13 8 -1 9 7 17 20 17 29 0 8 3 12 7 9 3 -4
15 5 25 20 10 16 18 24 18 20 0 -5 18 13 40 38 22 25 40 43 40 40 0 -4 15 13
34 37 18 24 38 42 45 41 6 -2 10 3 8 10 -1 6 4 11 10 10 7 -2 12 3 10 10 -1 6
4 11 10 10 7 -2 12 3 10 10 -1 6 4 11 11 10 6 -2 12 2 12 7 0 5 5 9 12 7 6 -1
17 8 23 20 9 17 14 20 23 11 9 -9 11 -6 7 10 -2 13 1 21 8 19 6 -1 11 3 12 10
0 12 13 28 23 28 16 1 52 27 52 37 0 19 31 47 46 41 8 -3 14 0 14 7 0 7 6 10
14 7 10 -4 14 0 11 13 -3 17 13 40 25 37 9 -3 50 30 44 35 -3 3 0 9 7 14 8 4
10 3 5 -4 -4 -7 -2 -12 3 -12 6 0 11 6 12 13 0 9 2 9 6 -1 4 -10 8 -10 19 -1
10 8 11 15 4 24 -7 9 -5 16 6 26 10 8 19 13 21 12 10 -8 23 -1 23 12 0 14 38
41 52 37 5 -1 7 3 5 10 -1 7 3 12 9 13 7 0 20 9 30 20 27 29 81 73 66 54 -9
-13 -9 -16 3 -16 8 0 12 3 10 7 -2 4 3 16 11 26 9 10 13 12 9 4 -4 -8 6 -1 22
15 15 17 26 26 23 20 -3 -6 4 -2 15 10 35 35 80 71 70 55 -6 -9 1 -4 15 11 30
32 153 120 470 336 565 384 718 479 1240 765 275 151 489 280 651 394 117 82
352 268 383 303 11 11 24 21 30 21 6 -1 -27 -37 -74 -81z m-2977 -486 c-41
-93 -106 -238 -145 -323 -83 -186 -417 -842 -523 -1028 -65 -115 -489 -759
-517 -787 -6 -5 6 23 27 62 20 40 42 70 47 67 5 -3 8 0 7 7 -4 18 22 66 84
158 27 40 43 70 36 66 -8 -5 -2 5 13 21 18 19 24 34 19 43 -6 9 -11 10 -15 2
-4 -6 -11 -9 -16 -6 -5 3 -11 1 -15 -5 -4 -6 -11 -7 -17 -4 -7 4 -8 2 -4 -5 6
-9 12 -9 24 1 15 12 16 11 3 -5 -8 -9 -16 -15 -19 -12 -3 3 -13 -2 -23 -11
-11 -10 -19 -12 -24 -5 -3 6 1 11 11 11 10 0 14 3 11 6 -3 4 -2 16 4 28 10 20
10 20 -8 -1 -10 -12 -27 -30 -38 -38 -11 -9 -15 -14 -9 -11 7 3 11 -5 10 -21
-1 -17 -7 -27 -19 -29 -18 -2 -18 -2 -1 17 9 10 12 19 6 19 -6 0 -21 -13 -34
-30 -28 -38 -34 -38 -33 3 1 21 12 43 33 65 17 19 50 70 72 114 l40 81 -22 12
c-14 7 -30 8 -40 3 -10 -5 -18 -6 -18 -3 0 3 -10 1 -21 -6 -18 -9 -19 -13 -8
-21 11 -7 9 -9 -8 -5 -15 3 -23 -1 -27 -15 -3 -13 -10 -19 -20 -15 -10 4 -13
1 -10 -7 3 -8 0 -17 -7 -22 -8 -5 -10 -3 -4 7 5 8 -1 5 -13 -5 -18 -16 -20
-22 -9 -35 10 -14 10 -14 -5 -3 -17 14 -18 13 -54 -33 -9 -11 -12 -13 -8 -5 7
13 5 13 -9 1 -9 -7 -16 -16 -14 -20 2 -3 -10 -19 -27 -36 -20 -21 -26 -24 -18
-9 6 12 8 25 4 29 -4 5 -1 5 6 1 9 -5 13 -3 11 5 -3 17 11 52 23 60 13 9 -2
39 -20 39 -13 0 -12 -3 4 -15 18 -14 18 -15 0 -9 -15 6 -17 3 -12 -14 8 -23
-8 -39 -20 -21 -5 8 -3 9 6 4 10 -6 12 -4 7 9 -4 10 -7 23 -7 29 0 7 -5 4 -11
-6 -8 -14 -14 -16 -25 -6 -7 6 -11 16 -7 23 4 6 -1 5 -10 -3 -9 -7 -14 -17
-11 -22 5 -8 -10 -13 -29 -10 -5 1 -5 -3 -2 -9 5 -8 14 -7 29 3 17 12 24 12
33 2 9 -10 9 -14 -3 -19 -9 -3 -12 -1 -9 4 8 12 -5 13 -24 1 -11 -7 -10 -11 5
-20 11 -6 14 -11 7 -11 -6 0 -15 5 -18 10 -5 8 -11 7 -21 -1 -7 -6 -11 -16 -7
-22 4 -6 1 -7 -6 -3 -9 6 -8 13 5 27 15 17 13 24 -9 20 -4 -1 0 16 9 36 9 21
18 46 21 55 3 10 9 15 14 12 5 -3 6 1 3 9 -5 15 98 242 226 497 77 152 120
250 120 272 0 20 -48 -32 -91 -98 -22 -35 -74 -143 -114 -241 -96 -238 -108
-262 -122 -267 -9 -4 -8 6 3 37 l14 42 -24 -27 c-13 -15 -27 -24 -31 -20 -4 4
-6 3 -5 -3 5 -22 -1 -35 -25 -61 -14 -15 -23 -34 -20 -41 3 -9 0 -11 -7 -7 -8
5 -9 2 -5 -9 3 -10 2 -17 -3 -17 -6 0 -18 -16 -27 -35 -9 -19 -20 -35 -25 -35
-4 0 -8 -5 -8 -11 0 -5 5 -7 12 -3 7 5 8 3 3 -6 -12 -20 -15 -48 -26 -285 -11
-253 -28 -389 -27 -220 1 55 0 183 -1 285 -2 146 0 198 14 249 9 35 14 66 11
69 -3 3 -6 0 -6 -6 0 -7 -5 -11 -11 -10 -6 2 -25 -28 -41 -67 -17 -38 -34 -72
-39 -73 -5 -2 -6 -9 -3 -14 4 -7 2 -8 -4 -4 -16 10 -15 39 1 30 9 -5 9 -4 0 6
-8 9 -9 19 -3 31 7 12 6 20 -2 25 -7 4 -8 3 -4 -4 4 -7 1 -12 -8 -12 -22 0
-12 46 35 155 79 183 220 387 426 618 128 144 424 404 445 391 4 -3 11 2 14
10 13 33 339 285 524 404 87 57 322 202 326 202 2 0 -31 -75 -73 -167z m1987
143 c0 -2 -8 -10 -17 -17 -16 -13 -17 -12 -4 4 13 16 21 21 21 13z m-672 -887
c-2 -6 -7 -10 -11 -9 -4 0 -15 -6 -24 -15 -8 -9 -18 -13 -21 -10 -7 7 31 34
40 29 5 -3 8 0 8 5 0 6 3 11 6 11 3 0 4 -5 2 -11z m-76 -51 c-6 -6 -15 -8 -19
-4 -4 4 -1 11 7 16 19 12 27 3 12 -12z m-32 -14 c0 -8 -4 -13 -9 -10 -5 3 -14
-1 -21 -9 -7 -8 -17 -15 -22 -15 -5 0 -21 -9 -35 -20 -14 -11 -32 -20 -40 -20
-8 0 -21 -7 -30 -15 -8 -8 -19 -13 -24 -9 -5 3 -12 -2 -15 -10 -3 -9 -14 -16
-24 -16 -10 0 -20 -5 -22 -11 -2 -5 -11 -11 -20 -12 -9 -2 -23 -9 -32 -16 -9
-7 -16 -11 -16 -7 0 3 -9 -3 -20 -14 -11 -11 -25 -20 -31 -20 -5 0 -8 -3 -6
-7 3 -5 -7 -9 -21 -10 -15 0 -33 -10 -42 -20 -13 -17 -101 -65 -114 -64 -3 0
-18 -11 -32 -24 -15 -14 -35 -25 -45 -25 -11 0 -19 -5 -19 -12 0 -6 -3 -8 -6
-5 -4 3 -16 2 -28 -4 -48 -23 20 22 94 63 41 22 145 82 230 133 193 115 238
138 252 129 7 -4 8 -3 4 4 -4 6 6 18 24 27 16 8 30 13 30 10 0 -4 7 1 16 9 19
20 24 20 24 0z m-760 -418 c0 -2 -9 -6 -20 -9 -11 -3 -18 -1 -14 4 5 9 34 13
34 5z m-2049 -329 c-10 -9 -11 -8 -5 6 3 10 9 15 12 12 3 -3 0 -11 -7 -18z
m351 -295 c-110 -132 -192 -314 -253 -567 -14 -61 -18 -68 -13 -30 21 185 143
475 252 597 57 62 66 62 14 0z m148 3 c-7 -9 -15 -13 -17 -11 -7 7 7 26 19 26
6 0 6 -6 -2 -15z m-78 -62 c-16 -26 -45 -78 -63 -116 -18 -37 -34 -65 -37 -62
-5 5 70 155 101 202 34 50 33 29 -1 -24z m-32 -283 c-11 -22 -23 -40 -25 -40
-3 0 4 18 15 40 11 22 23 40 25 40 3 0 -4 -18 -15 -40z m-50 -90 c-11 -22 -23
-40 -25 -40 -3 0 4 18 15 40 11 22 23 40 25 40 3 0 -4 -18 -15 -40z m-40 -78
c0 -5 -7 -17 -15 -28 -14 -18 -14 -17 -4 9 12 27 19 34 19 19z m217 -199 c-10
-3 -14 -9 -10 -16 5 -8 2 -8 -9 0 -8 7 -19 9 -23 5 -5 -4 -6 -2 -2 3 3 6 18
11 34 12 15 0 20 -1 10 -4z m-64 -48 c-3 -9 -8 -14 -10 -11 -3 3 -2 9 2 15 9
16 15 13 8 -4z m-16 -152 c0 -9 -4 -10 -14 -2 -7 6 -13 12 -13 14 0 1 6 2 13
2 8 0 14 -6 14 -14z m-19 -28 c-2 -5 -8 -10 -15 -11 -6 -1 -9 4 -6 12 6 16 27
15 21 -1z"/>
<path d="M5286 6312 c-3 -5 1 -9 9 -9 8 0 12 4 9 9 -3 4 -7 8 -9 8 -2 0 -6 -4
-9 -8z"/>
<path d="M5089 6143 c-13 -16 -12 -17 4 -4 9 7 17 15 17 17 0 8 -8 3 -21 -13z"/>
<path d="M5006 6072 c-3 -5 1 -9 9 -9 8 0 12 4 9 9 -3 4 -7 8 -9 8 -2 0 -6 -4
-9 -8z"/>
<path d="M4682 5730 c-12 -10 -19 -21 -15 -23 5 -3 16 6 26 19 21 29 19 30
-11 4z"/>
<path d="M4564 5638 c-19 -22 -19 -22 0 -8 18 14 19 13 12 -5 -7 -19 -6 -19
11 -3 12 12 14 21 7 28 -7 7 -17 3 -30 -12z"/>
<path d="M4446 5512 c-3 -5 1 -9 9 -9 8 0 12 4 9 9 -3 4 -7 8 -9 8 -2 0 -6 -4
-9 -8z"/>
<path d="M4427 5453 c-10 -19 -13 -33 -7 -31 7 2 10 7 8 10 -2 4 5 13 14 20
10 7 14 18 10 24 -4 7 -14 -1 -25 -23z"/>
<path d="M4397 5403 c-4 -3 -15 -7 -25 -8 -9 0 -17 -3 -18 -5 0 -3 -6 -15 -12
-27 -15 -27 1 -41 22 -20 11 11 12 17 3 27 -10 10 -7 12 11 7 13 -3 21 -3 18
0 -3 4 -1 12 5 20 12 13 8 19 -4 6z"/>
<path d="M4292 5235 c4 -4 3 -16 -3 -26 -5 -11 -7 -19 -5 -19 3 0 10 9 16 19
7 15 7 22 -2 27 -7 4 -10 4 -6 -1z"/>
<path d="M4556 7358 c-46 -60 -161 -280 -170 -323 -4 -16 27 34 68 113 42 78
92 167 111 198 20 31 35 58 33 60 -2 2 -21 -20 -42 -48z"/>
<path d="M3825 6299 c-11 -16 -1 -19 13 -3 7 8 8 14 3 14 -5 0 -13 -5 -16 -11z"/>
<path d="M3965 6251 c-3 -5 -2 -12 3 -15 5 -3 9 1 9 9 0 17 -3 19 -12 6z"/>
<path d="M6539 8570 c-32 -17 -40 -31 -79 -127 -188 -473 -597 -1124 -1071
-1702 -181 -221 -184 -225 -104 -154 261 231 648 737 925 1208 110 188 257
485 320 646 28 72 50 135 48 139 -2 5 -19 0 -39 -10z"/>
<path d="M4329 8273 c-13 -16 -12 -17 4 -4 16 13 21 21 13 21 -2 0 -10 -8 -17
-17z"/>
<path d="M3356 8258 c3 -5 10 -6 15 -3 13 9 11 12 -6 12 -8 0 -12 -4 -9 -9z"/>
<path d="M8730 8142 c-30 -46 -67 -97 -81 -113 -15 -16 -25 -30 -22 -32 2 -2
-3 -10 -12 -17 -8 -7 -15 -9 -15 -5 0 4 -7 2 -15 -5 -21 -18 -19 -35 3 -19 15
13 16 12 3 -4 -10 -12 -17 -15 -24 -8 -7 7 -5 17 7 30 10 11 21 20 25 19 19
-2 24 4 11 12 -10 6 -11 10 -2 10 6 0 12 7 12 16 0 9 5 12 13 8 6 -4 9 -4 5 1
-11 11 12 36 25 28 6 -3 7 -1 3 5 -6 11 -1 20 56 85 15 18 28 35 28 39 0 5
-39 -36 -87 -89 -164 -181 -367 -347 -683 -559 -299 -201 -405 -264 -975 -582
-580 -323 -764 -436 -1105 -680 -370 -265 -589 -450 -885 -746 -475 -477 -797
-1004 -965 -1579 -56 -194 -115 -514 -140 -757 -11 -110 -9 -517 3 -560 13
-43 37 -242 31 -251 -3 -5 -1 -9 3 -9 5 0 15 -27 21 -60 7 -34 16 -68 19 -77
5 -11 3 -14 -6 -8 -10 6 -11 3 -2 -13 6 -11 12 -34 13 -51 3 -36 21 -55 58
-64 14 -3 151 -18 304 -32 296 -27 478 -56 666 -106 124 -33 487 -152 530
-174 24 -13 125 -41 179 -52 14 -2 28 -6 32 -9 4 -2 10 2 12 8 4 9 8 9 14 3 4
-5 19 -11 33 -13 14 -2 36 -5 50 -8 39 -7 142 -18 178 -18 17 -1 32 -4 32 -8
0 -4 19 -7 43 -7 23 -1 80 -3 127 -7 135 -10 403 -9 424 0 15 7 18 6 11 -5 -6
-11 -5 -11 5 -2 7 6 19 9 26 6 8 -3 20 0 28 6 7 6 27 11 42 10 16 0 54 4 86 9
31 6 65 8 77 5 12 -3 21 -1 21 5 0 6 8 11 18 11 21 1 52 6 72 14 26 9 113 31
129 32 9 0 21 4 26 7 11 6 78 28 98 32 7 2 34 13 60 24 27 12 51 22 54 22 2 0
36 16 74 35 38 19 69 31 69 27 0 -4 4 -2 8 3 4 6 16 17 26 25 18 13 19 13 12
0 -4 -8 0 -6 8 4 9 11 16 16 16 10 0 -5 5 -1 11 9 6 9 14 15 20 12 5 -4 9 -1
9 5 0 6 4 9 9 6 5 -4 23 6 40 20 17 14 31 22 31 17 0 -4 4 -2 9 5 4 7 14 14
22 16 8 1 28 9 44 18 17 8 57 24 90 33 71 22 73 21 -123 35 -261 19 -454 55
-987 188 -404 101 -583 131 -880 147 -115 7 -560 -14 -560 -25 0 -1 -11 -3
-25 -5 -94 -13 -177 -26 -195 -31 -14 -5 -17 -3 -10 5 15 15 170 46 355 71
231 31 506 27 774 -11 51 -8 80 -8 85 -2 3 6 14 9 23 8 12 -2 15 2 10 13 -5
15 -4 15 11 3 10 -8 19 -12 22 -10 2 3 -4 10 -15 16 -15 10 -23 8 -44 -8 -18
-14 -24 -16 -20 -6 8 21 -14 31 -33 15 -14 -10 -15 -10 -9 0 5 8 1 19 -10 27
-11 8 -15 15 -10 15 5 0 2 8 -5 17 -8 9 -9 14 -3 10 7 -4 14 -1 17 7 4 9 -2
12 -18 10 -36 -3 -52 21 -24 37 20 10 20 12 6 21 -10 5 -22 6 -29 2 -8 -5 -9
-2 -5 10 4 10 3 15 -3 11 -6 -3 -10 -2 -10 4 0 6 -6 8 -12 6 -7 -3 -26 -1 -42
3 -27 7 -22 10 45 23 95 18 405 19 509 0 295 -52 666 -173 1007 -330 l132 -61
68 36 c105 57 234 139 320 203 101 75 265 245 330 341 49 73 128 220 118 220
-2 0 -12 -15 -21 -32 -9 -18 -20 -35 -24 -38 -4 -3 -15 -18 -24 -35 -33 -62
-104 -150 -117 -147 -8 2 -11 0 -7 -4 12 -11 -33 -66 -49 -60 -8 3 -11 1 -8
-4 11 -18 -150 -154 -168 -143 -6 4 -7 1 -2 -7 6 -10 4 -12 -9 -7 -10 4 -15 3
-11 -3 7 -11 -49 -42 -60 -32 -5 4 -4 1 0 -7 6 -11 4 -13 -9 -8 -9 4 -15 3
-12 -2 7 -11 -22 -23 -36 -14 -7 4 -8 1 -3 -7 6 -10 4 -12 -9 -7 -9 4 -15 3
-12 -2 8 -12 -81 -44 -95 -35 -7 4 -9 3 -6 -3 8 -13 -39 -27 -55 -17 -6 4 -8
3 -5 -3 8 -12 -38 -27 -53 -18 -6 4 -10 1 -10 -4 0 -17 -47 -13 -54 5 -3 8 -2
12 4 9 5 -3 6 10 3 32 -3 21 -10 40 -15 41 -4 2 -8 8 -8 13 0 6 4 8 9 5 5 -3
11 8 13 24 3 20 1 27 -6 21 -7 -5 -16 -4 -23 4 -10 11 -10 15 0 18 7 3 5 6 -5
6 -9 1 -20 -3 -23 -9 -3 -5 -12 -10 -18 -10 -8 0 -8 3 -2 8 6 4 11 14 12 22 3
13 -12 16 -85 18 -94 3 -232 16 -327 33 -144 24 -265 53 -265 64 0 6 18 29 41
50 50 50 83 101 75 120 -11 29 -108 19 -179 -17 -56 -29 -71 -33 -148 -33 -85
0 -119 11 -119 39 0 7 35 28 77 46 64 28 94 50 178 132 l100 97 -105 -5 c-75
-5 -182 1 -375 19 -148 14 -326 28 -394 30 -68 3 -126 9 -130 15 -4 7 -37 3
-96 -9 -204 -43 -453 -144 -649 -262 -33 -20 -63 -34 -68 -31 -14 9 -9 28 16
55 33 35 50 69 35 69 -7 0 -9 9 -6 21 4 16 2 19 -11 14 -11 -4 -9 3 8 22 21
23 17 21 -20 -8 -53 -42 -82 -60 -62 -38 14 15 16 33 3 24 -5 -3 -13 0 -17 6
-4 8 -9 7 -16 -2 -8 -11 -9 -11 -5 1 2 8 10 15 17 15 7 0 14 8 16 18 1 9 -2
15 -7 11 -5 -3 -9 0 -9 5 0 6 -4 11 -10 11 -5 0 -7 -8 -4 -18 5 -14 3 -14 -10
2 -9 11 -16 16 -16 11 0 -4 -9 0 -20 10 -11 10 -20 26 -20 36 0 13 -6 16 -22
11 -14 -3 -19 -2 -14 6 4 7 2 12 -3 12 -6 0 -11 -5 -11 -12 0 -9 -3 -9 -12 0
-9 9 -7 17 8 34 l19 22 -31 -20 c-47 -29 -74 -54 -133 -118 -49 -56 -100 -83
-86 -48 3 10 0 12 -10 8 -19 -7 -19 -2 -1 33 8 15 12 38 9 50 -4 14 -1 26 8
32 11 7 9 9 -7 9 -21 0 -30 26 -10 28 6 1 49 10 96 21 47 11 145 27 219 36
221 28 643 13 831 -30 8 -2 16 -4 18 -5 1 -2 5 -3 10 -5 4 -1 15 -5 25 -10 21
-9 43 7 33 24 -4 6 -23 13 -44 16 -79 13 -80 13 -74 40 4 24 7 25 86 27 95 1
98 2 111 10 6 3 25 5 43 4 18 -1 35 1 38 6 3 5 9 6 13 3 5 -2 33 4 64 15 31
11 63 20 72 20 8 0 15 5 15 11 0 5 4 8 10 4 5 -3 17 -2 27 3 37 19 94 42 104
42 6 0 24 9 40 21 16 11 29 17 29 12 0 -4 4 -3 8 2 4 6 36 25 72 44 36 19 94
54 130 79 72 51 280 251 280 270 0 7 -22 0 -52 -17 -129 -72 -287 -101 -553
-101 -275 0 -531 39 -718 110 -59 22 -121 66 -112 80 2 4 71 7 152 7 173 0
313 6 313 13 0 3 10 6 23 6 103 7 195 19 227 29 12 4 32 8 43 10 12 1 33 5 47
9 14 3 36 8 50 10 56 9 226 67 280 96 290 153 429 257 564 423 61 74 52 80
-130 89 -148 7 -255 25 -277 47 -22 22 14 29 142 26 69 -1 118 1 107 4 -10 4
11 7 45 7 96 0 156 13 239 52 100 46 209 110 239 138 13 13 27 21 32 18 5 -3
9 -1 9 4 0 5 24 25 54 45 139 92 308 285 418 477 58 100 130 252 123 258 -2 3
-24 -13 -49 -35 -117 -103 -416 -199 -692 -223 -183 -16 -426 3 -571 45 -49
14 -57 22 -50 43 1 4 85 8 187 9 236 2 230 2 230 11 0 5 13 7 28 6 16 -1 68 7
118 18 49 10 100 21 114 24 14 3 43 10 65 15 22 6 48 10 58 10 9 0 17 4 17 8
0 8 17 13 87 25 12 2 28 8 35 12 7 5 18 9 23 11 37 8 90 34 88 42 -2 6 4 8 12
5 8 -4 15 -1 15 6 0 7 6 10 14 7 8 -3 20 1 27 9 6 8 14 12 16 10 3 -3 46 16
97 42 130 67 180 120 239 254 72 165 71 169 -20 80 -136 -133 -317 -220 -532
-256 -105 -18 -207 -21 -215 -7 -4 5 27 14 66 21 204 33 335 85 513 204 81 54
160 129 206 198 120 176 228 666 268 1223 11 147 19 611 11 618 -3 2 -30 -34
-60 -81z m-250 -326 c0 -2 -8 -10 -17 -17 -16 -13 -17 -12 -4 4 13 16 21 21
21 13z m-103 -114 c-15 -14 -27 -21 -27 -14 0 6 5 12 11 12 5 0 7 5 4 10 -3 6
1 10 9 10 9 0 16 5 16 12 0 6 3 8 7 4 4 -3 -5 -19 -20 -34z m-82 -62 c3 -5 0
-10 -8 -10 -7 0 -24 -11 -37 -25 -13 -14 -28 -25 -33 -25 -5 0 6 16 24 35 35
37 44 41 54 25z m-98 -80 c1 -11 -2 -18 -6 -15 -5 2 -28 -13 -52 -35 -24 -21
-47 -36 -52 -33 -5 3 -2 10 7 15 9 5 36 27 59 49 23 21 42 39 42 39 1 0 1 -9
2 -20z m-133 -105 c-7 -18 -20 -19 -30 -3 -4 6 -3 8 4 4 6 -3 13 -2 17 4 9 15
15 12 9 -5z m-44 -30 c-7 -8 -9 -15 -4 -15 11 0 -14 -25 -26 -26 -6 -1 -15 -2
-21 -3 -5 0 -7 -5 -4 -11 3 -6 -1 -7 -9 -4 -9 3 -16 1 -16 -5 0 -6 -7 -11 -15
-11 -7 0 -19 -8 -24 -17 -6 -11 -11 -13 -11 -5 0 7 -5 10 -10 7 -6 -4 -8 -10
-5 -15 3 -4 -2 -11 -11 -14 -8 -3 -12 -11 -8 -17 4 -7 3 -9 -3 -6 -6 4 -27 -4
-47 -18 -20 -14 -51 -32 -69 -41 -30 -16 -31 -16 -18 0 7 9 31 26 52 38 22 12
39 26 39 32 0 5 3 6 7 2 4 -3 22 8 40 26 18 17 33 29 33 25 0 -3 29 16 66 43
67 51 86 62 64 35z m509 -65 c-219 -284 -654 -546 -1209 -730 -177 -58 -399
-113 -509 -125 -25 -3 -72 -11 -104 -17 -49 -9 -80 -7 -66 6 2 2 124 33 271
70 713 177 1212 422 1563 767 61 60 111 109 113 109 2 0 -25 -36 -59 -80z
m-835 -154 c-3 -8 -13 -17 -22 -21 -13 -5 -13 -2 3 15 21 24 26 25 19 6z m-65
-49 c-2 -1 -13 -9 -24 -17 -19 -14 -19 -14 -6 3 7 9 18 17 24 17 6 0 8 -1 6
-3z m900 -504 c-106 -189 -258 -354 -430 -469 -121 -81 -272 -157 -311 -157
-15 0 -25 -4 -22 -9 3 -4 0 -8 -5 -8 -6 0 -11 5 -11 11 0 6 -7 9 -15 5 -20 -7
-19 -3 5 19 18 17 20 17 14 2 -5 -13 -2 -16 10 -11 9 3 14 10 11 14 -3 5 0 12
6 16 8 4 9 3 5 -4 -4 -7 -2 -12 5 -12 7 0 9 8 6 21 -4 17 -3 18 9 8 12 -9 13
-9 9 3 -4 10 25 33 100 78 191 115 459 344 596 508 20 23 39 42 43 42 4 0 -7
-26 -25 -57z m-779 -258 c-7 -8 -18 -15 -26 -15 -7 0 -17 -6 -21 -12 -4 -7
-15 -14 -23 -14 -8 -1 -24 -5 -35 -9 -16 -6 -17 -5 -5 4 11 8 11 11 2 11 -7 0
-15 -7 -19 -16 -5 -13 -7 -13 -14 -2 -6 9 -9 9 -9 1 0 -7 -9 -17 -19 -22 -14
-8 -22 -7 -32 6 -10 12 -10 15 -1 9 6 -4 12 -3 12 2 0 9 88 39 103 34 4 -1 7
3 7 9 0 5 5 7 10 4 6 -3 10 -2 10 4 0 5 11 8 25 6 14 -1 28 2 31 6 3 5 8 9 11
9 3 0 0 -7 -7 -15z m-214 -79 c16 -17 19 -30 4 -21 -13 8 -52 -4 -45 -15 3 -4
-4 -10 -15 -13 -13 -3 -18 -1 -13 6 4 7 -1 6 -10 -2 -9 -7 -17 -10 -17 -6 0 5
-8 1 -17 -8 -10 -8 -20 -15 -23 -15 -3 0 -43 -11 -90 -25 -127 -38 -191 -54
-340 -81 -183 -34 -377 -58 -401 -51 -39 13 -16 22 82 34 168 21 584 113 724
161 31 11 61 17 66 14 5 -3 9 -1 9 4 0 8 13 13 68 31 2 1 10 -5 18 -13z m194
-306 c10 -1 9 -4 -5 -9 -11 -5 -25 -4 -33 2 -9 7 -11 6 -6 -7 5 -12 2 -15 -10
-10 -9 3 -16 1 -16 -5 0 -6 -7 -8 -15 -5 -8 4 -17 -1 -21 -9 -3 -8 -13 -14
-22 -13 -16 3 -20 15 -4 17 4 0 12 10 18 21 7 14 14 17 18 9 4 -6 12 -11 17
-11 6 0 8 4 4 9 -6 10 21 19 45 15 8 -1 22 -3 30 -4z m-198 -58 c5 -19 1 -21
-47 -25 -14 -1 -25 -5 -25 -9 0 -5 -5 -8 -10 -8 -6 0 -5 8 2 19 12 20 28 23
39 7 4 -5 13 1 20 13 17 25 16 25 21 3z m-111 -38 c10 -13 10 -17 -1 -24 -7
-4 -19 -6 -27 -3 -7 3 -13 0 -13 -7 0 -7 -8 -10 -20 -7 -13 3 -18 1 -13 -6 4
-6 -2 -8 -15 -5 -12 4 -22 3 -22 -1 0 -5 -37 -16 -82 -26 -46 -10 -89 -20 -97
-23 -9 -3 -12 -1 -7 6 4 7 -3 6 -19 -2 -14 -7 -39 -12 -56 -10 -16 2 -28 0
-25 -5 3 -5 -10 -11 -28 -13 -22 -2 -32 0 -28 7 3 5 -1 4 -10 -3 -9 -7 -27
-11 -41 -8 -14 2 -27 1 -29 -4 -8 -22 -655 -52 -708 -32 -19 7 4 11 95 16 379
22 678 56 874 100 63 15 116 24 119 21 3 -3 11 0 18 6 8 6 21 9 29 5 11 -4 14
-2 9 6 -5 8 -2 9 9 5 10 -4 17 -2 17 4 0 7 10 9 26 5 17 -5 23 -3 19 4 -10 16
11 12 26 -6z m-931 -362 c0 -5 -93 -18 -207 -28 -308 -30 -322 -10 -18 25 96
11 225 13 225 3z m632 -189 c-6 -2 -9 -10 -5 -16 3 -7 3 -9 -2 -5 -4 4 -20 1
-34 -7 -86 -44 -463 -86 -896 -100 -93 -3 -242 -10 -330 -16 -164 -10 -199 -9
-212 6 -5 4 -3 5 4 2 6 -4 13 -3 15 2 4 12 265 37 633 61 171 11 333 22 360
25 225 23 431 47 434 51 2 2 14 4 25 3 12 0 15 -3 8 -6z m-395 -210 c-9 -2
-15 -9 -12 -14 4 -5 1 -9 -4 -9 -6 0 -11 -7 -11 -15 0 -8 7 -15 15 -15 8 0 15
-8 15 -18 0 -10 6 -24 13 -31 7 -9 7 -11 1 -8 -20 11 -24 -21 -6 -40 9 -9 18
-21 18 -27 1 -6 2 -16 3 -23 0 -7 8 -10 16 -7 9 4 15 0 15 -9 0 -9 12 -18 29
-22 26 -6 48 -31 37 -42 -8 -8 -184 -30 -339 -43 -183 -16 -580 -8 -797 14
-85 9 -160 18 -167 21 -17 6 -4 45 16 45 9 0 29 7 45 15 15 8 34 15 42 15 7 0
18 8 23 18 6 9 11 11 11 5 0 -23 15 -13 27 18 7 17 16 28 20 26 12 -8 82 25
112 52 17 15 27 18 32 10 11 -19 50 7 42 29 -6 15 -5 16 12 2 10 -8 16 -10 12
-3 -4 6 -4 18 -1 26 5 13 37 16 197 17 106 1 269 6 362 9 211 9 245 10 222 4z
m-924 -980 c-7 -2 -19 -2 -25 0 -7 3 -2 5 12 5 14 0 19 -2 13 -5z m-673 -1763
c0 -5 -6 -11 -12 -11 -7 -1 -23 -3 -35 -4 -13 -1 -29 -8 -38 -15 -8 -7 -15
-10 -15 -7 0 4 -37 -9 -82 -28 -95 -40 -153 -47 -68 -8 61 28 218 82 238 83 6
0 12 -4 12 -10z m-315 -110 c-3 -5 -12 -10 -18 -10 -7 0 -6 4 3 10 19 12 23
12 15 0z m-40 -20 c-3 -5 -12 -10 -18 -10 -7 0 -6 4 3 10 19 12 23 12 15 0z
m-45 -25 c0 -2 -13 -11 -30 -20 -38 -19 -40 -11 -2 9 31 17 32 18 32 11z"/>
<path d="M6700 5081 c0 -6 4 -12 8 -15 5 -3 9 1 9 9 0 8 -4 15 -9 15 -4 0 -8
-4 -8 -9z"/>
<path d="M3996 8163 c-6 -14 -5 -15 5 -6 7 7 10 15 7 18 -3 3 -9 -2 -12 -12z"/>
<path d="M3961 8134 c0 -11 3 -14 6 -6 3 7 2 16 -1 19 -3 4 -6 -2 -5 -13z"/>
<path d="M8525 8029 c-77 -64 -308 -224 -449 -312 -244 -151 -460 -272 -886
-492 -521 -270 -850 -460 -1177 -678 -520 -349 -922 -686 -1270 -1065 -222
-243 -437 -545 -574 -806 -74 -143 -202 -436 -228 -523 -19 -64 -42 -256 -40
-333 l1 -35 10 40 c139 574 401 1072 817 1555 216 250 582 588 896 827 221
168 625 441 808 547 245 142 288 166 382 218 55 31 208 114 340 186 555 299
926 527 1250 768 105 78 196 153 185 153 -3 0 -32 -22 -65 -50z"/>
<path d="M3450 7854 c0 -8 5 -12 10 -9 6 4 8 11 5 16 -9 14 -15 11 -15 -7z"/>
<path d="M2366 7198 c-8 -12 -13 -25 -10 -30 3 -4 -2 -5 -11 -1 -13 5 -14 7
-3 14 7 5 8 9 2 9 -18 0 -24 -12 -13 -26 8 -10 4 -19 -16 -38 -15 -14 -30 -25
-34 -24 -3 1 -14 -2 -24 -7 -17 -7 -17 -8 0 -22 17 -14 17 -14 -1 -9 -14 5
-17 2 -12 -9 3 -9 -1 -18 -10 -22 -21 -8 -29 4 -14 22 11 13 10 14 -3 10 -14
-6 -27 -34 -27 -63 0 -7 4 -11 9 -8 14 9 7 -22 -9 -37 -10 -10 -12 -9 -7 6 5
12 3 16 -4 11 -6 -3 -9 -17 -6 -30 2 -13 0 -24 -6 -24 -6 0 -7 -3 -4 -7 4 -3
1 -13 -6 -21 -10 -13 -9 -15 4 -10 9 4 16 1 16 -7 0 -7 -6 -11 -13 -8 -7 3
-15 -8 -19 -29 -4 -18 -12 -39 -17 -45 -6 -7 -8 -20 -4 -28 3 -8 1 -15 -4 -15
-5 0 -10 -8 -12 -17 -4 -23 -107 269 -117 334 -8 48 -8 48 -19 20 -16 -39 -33
-269 -33 -467 -1 -272 57 -569 192 -977 22 -67 37 -128 33 -134 -4 -7 -3 -9 3
-6 10 6 27 -32 18 -41 -35 -36 -202 492 -241 763 -8 60 -17 121 -19 134 -2 13
-7 61 -11 107 -4 46 -11 81 -15 78 -5 -3 -9 0 -9 6 0 6 -5 8 -12 4 -6 -4 -8
-3 -4 4 8 14 -10 62 -25 62 -7 0 -9 -10 -7 -24 3 -14 1 -31 -3 -38 -7 -10 -9
-8 -9 5 0 11 -5 17 -12 14 -7 -2 -12 -12 -12 -21 1 -10 -4 -15 -15 -14 -9 2
-15 -2 -14 -9 2 -7 -4 -10 -12 -7 -13 5 -13 8 0 21 19 18 20 29 2 14 -8 -6
-16 -8 -20 -5 -8 8 -3 -18 6 -33 8 -13 7 -14 -14 -17 -7 0 -15 -10 -20 -21 -4
-11 -8 -14 -8 -6 -1 8 -4 11 -8 7 -5 -4 0 -13 9 -20 16 -12 16 -15 2 -32 -9
-10 -13 -14 -10 -9 2 6 1 16 -3 23 -9 15 -75 -190 -100 -313 -15 -75 -19 -86
-29 -70 -27 47 -7 -5 61 -159 89 -198 155 -307 262 -429 191 -217 541 -494
806 -636 95 -51 149 -64 149 -37 0 7 -42 67 -92 132 -181 233 -314 463 -441
764 -104 244 -177 514 -180 662 -1 36 -5 64 -9 61 -10 -5 -9 46 1 71 4 11 10
15 14 10 3 -6 2 -16 -4 -24 -16 -26 -11 -46 6 -24 12 15 16 16 24 5 5 -7 14
-10 21 -6 9 6 9 9 -1 16 -8 5 -9 9 -4 8 6 0 21 -7 35 -15 14 -8 17 -13 8 -10
-13 4 -17 0 -15 -12 4 -24 17 -43 27 -37 4 3 14 -3 21 -13 13 -16 13 -16 -5
-2 -18 14 -19 13 -14 -1 4 -9 1 -22 -5 -29 -8 -9 -9 -11 -1 -7 7 4 14 -2 17
-13 6 -22 -8 -28 -16 -7 -4 7 -6 6 -6 -5 -1 -9 4 -18 11 -20 10 -4 28 -84 29
-131 0 -9 4 -15 10 -12 5 4 9 -3 9 -15 0 -12 5 -18 10 -15 6 3 10 -3 10 -15 0
-12 4 -19 9 -16 4 3 16 -3 26 -14 18 -20 16 -23 -20 -22 -19 1 -19 0 -1 -5 15
-4 16 -7 5 -14 -11 -7 -11 -9 -1 -9 7 0 10 -5 6 -12 -4 -7 -3 -8 4 -4 7 4 12
3 12 -3 0 -5 13 -18 30 -27 18 -11 26 -22 21 -28 -11 -14 -10 -47 1 -40 4 3 8
-2 8 -10 0 -9 5 -16 10 -16 15 0 12 -27 -4 -33 -8 -3 -20 2 -28 11 -12 15 -11
16 4 4 10 -8 18 -9 22 -3 8 12 -30 35 -43 26 -5 -3 -17 2 -25 11 -16 16 -46
13 -46 -4 0 -8 198 -198 223 -214 8 -4 7 -15 -2 -35 -14 -31 -14 -39 1 -35 5
1 7 -2 3 -8 -3 -5 -15 -10 -26 -10 -25 0 -35 -25 -17 -43 7 -7 48 -37 91 -66
46 -31 75 -56 71 -63 -4 -7 -2 -8 5 -4 11 7 142 -91 158 -118 7 -12 -17 5 -54
37 -12 11 -26 16 -33 12 -6 -4 -9 -1 -8 7 2 7 -6 13 -17 13 -11 0 -20 6 -20
14 0 8 -9 15 -20 16 -16 1 -21 -5 -21 -21 0 -13 4 -20 8 -18 5 3 5 10 2 16 -4
5 5 2 20 -7 21 -14 24 -20 15 -31 -10 -12 -9 -13 5 -8 12 5 15 2 10 -10 -3 -9
-10 -16 -15 -16 -9 0 22 -37 31 -37 25 -2 29 -5 23 -20 -4 -10 -2 -14 4 -10
12 8 12 -11 0 -30 -5 -7 -6 -17 -3 -22 9 -14 -17 -8 -45 10 -13 9 -35 21 -49
28 -24 12 -24 11 -5 -4 11 -9 20 -21 20 -28 0 -7 8 -11 18 -11 9 1 15 -2 12
-6 -3 -4 17 -25 43 -46 56 -45 113 -100 92 -89 -34 19 -133 88 -168 118 l-37
31 35 -38 c19 -21 72 -65 118 -98 45 -33 82 -63 82 -65 0 -3 -7 1 -17 8 -13
11 -17 11 -20 2 -3 -9 -21 0 -51 24 -67 53 -85 62 -32 17 25 -21 68 -60 95
-86 28 -27 55 -48 60 -48 6 0 -10 19 -35 41 l-45 41 45 -35 c25 -20 44 -40 43
-45 -1 -6 27 -29 62 -52 35 -23 70 -49 77 -58 9 -11 3 -10 -17 4 -16 12 -41
26 -55 33 l-25 12 23 -17 c21 -16 21 -18 7 -34 -12 -14 -13 -20 -4 -26 8 -5
10 -3 4 6 -5 9 -4 11 3 6 7 -4 12 -15 12 -25 0 -9 6 -23 13 -31 6 -8 2 -6 -10
4 -22 18 -22 18 -14 -10 4 -15 14 -29 22 -32 12 -3 11 -2 -1 8 -12 9 -12 11
-1 8 8 -2 15 -12 17 -22 1 -10 0 -15 -3 -12 -4 3 -12 1 -19 -5 -11 -9 -11 -15
1 -33 8 -13 12 -26 8 -29 -3 -4 -1 -8 5 -8 26 -3 31 -4 38 -11 3 -4 -3 -6 -14
-3 -23 4 -39 -10 -22 -20 5 -3 10 -11 10 -16 0 -6 -4 -7 -10 -4 -5 3 -10 1
-10 -5 0 -6 -5 -8 -12 -4 -7 4 -8 3 -4 -4 4 -7 17 -17 29 -24 20 -10 21 -9 9
5 -13 15 -12 16 27 8 2 -1 -2 -7 -8 -15 -14 -17 2 -32 21 -20 6 4 8 3 5 -2 -3
-5 23 -29 58 -53 35 -23 70 -50 77 -59 12 -15 11 -16 -4 -4 -9 8 -23 10 -29 6
-7 -4 -9 -3 -6 3 8 13 -80 76 -93 68 -8 -5 -8 -11 0 -20 8 -10 8 -13 -2 -11
-7 1 -18 5 -24 9 -6 3 -19 -2 -29 -13 -10 -11 -21 -17 -26 -15 -4 3 -11 0 -15
-6 -4 -8 -3 -9 4 -5 7 4 12 3 12 -3 0 -5 -6 -11 -12 -14 -10 -3 -10 -8 1 -18
9 -9 11 -9 7 -1 -10 16 2 15 19 -2 26 -26 4 -24 -58 4 -34 16 -73 31 -87 35
l-25 7 25 -23 c13 -13 28 -23 32 -21 5 1 8 -2 8 -7 0 -5 53 -41 118 -82 111
-69 222 -147 222 -156 0 -6 -38 16 -45 27 -3 6 -11 10 -17 10 -6 0 -5 -7 4
-17 9 -10 13 -24 11 -31 -3 -8 -11 -5 -23 10 -15 19 -20 21 -34 8 -15 -11 -17
-11 -14 1 2 8 -4 14 -13 13 -9 -1 -16 4 -16 11 0 8 7 11 15 7 12 -4 14 -1 9
12 -6 14 -3 17 8 12 10 -3 13 -2 10 5 -4 5 -16 7 -27 3 -15 -4 -18 -3 -13 6 5
8 4 11 -2 7 -6 -4 -9 -18 -7 -33 2 -20 -1 -24 -14 -19 -23 9 -9 -3 71 -59 59
-42 70 -46 85 -34 15 12 16 11 4 -4 -11 -14 -8 -20 30 -46 24 -17 63 -49 88
-72 36 -34 41 -43 30 -52 -12 -7 -10 -9 8 -5 17 4 22 1 20 -11 -2 -10 -7 -20
-13 -24 -6 -5 -6 -8 2 -8 7 0 17 8 23 18 9 14 11 14 7 1 -3 -9 0 -22 6 -29 9
-10 7 -11 -13 -6 -14 3 -19 3 -12 0 6 -3 12 -10 12 -16 0 -6 19 -27 41 -48 23
-21 39 -42 35 -48 -3 -6 -1 -14 5 -18 8 -5 9 -3 4 6 -6 9 -4 11 4 6 7 -5 10
-14 7 -21 -2 -7 8 -38 24 -69 26 -50 27 -55 10 -46 -16 9 -20 8 -20 -5 0 -9 3
-14 8 -12 4 3 8 -11 9 -31 1 -20 7 -38 12 -40 7 -2 8 -10 2 -20 -13 -24 -12
-35 6 -54 8 -10 13 -24 10 -31 -3 -8 0 -20 6 -27 9 -10 9 -11 -3 -6 -8 4 -6 0
4 -8 14 -11 20 -31 22 -66 1 -27 -1 -52 -6 -55 -4 -3 -1 -24 7 -46 9 -27 10
-46 4 -52 -12 -12 -35 29 -25 46 4 6 4 9 -1 5 -4 -4 -28 27 -53 70 -156 267
-386 502 -882 902 -334 270 -478 399 -649 585 l-83 90 68 -90 c73 -97 206
-255 248 -294 14 -14 26 -29 26 -35 0 -6 -7 -3 -14 7 -7 9 -17 17 -22 17 -5 0
-14 10 -19 23 -6 12 -16 21 -21 20 -11 -2 -73 56 -74 70 0 4 0 12 0 18 0 5 -4
8 -9 5 -9 -6 -68 64 -63 77 1 4 -2 6 -8 5 -24 -7 -282 396 -389 607 -88 176
-131 346 -143 570 l-3 50 -37 -111 c-21 -62 -47 -167 -59 -235 -40 -240 -40
-645 0 -971 12 -92 21 -181 21 -197 0 -23 8 -34 35 -51 32 -20 35 -25 35 -71
l0 -49 160 -106 c88 -59 157 -111 153 -117 -3 -6 -1 -7 5 -3 11 7 92 -38 92
-51 0 -4 -5 -2 -12 5 -15 15 -32 16 -23 2 3 -5 2 -10 -4 -10 -5 0 -13 9 -16
20 -7 22 -20 26 -31 8 -5 -7 -3 -8 6 -3 8 5 11 4 6 -3 -3 -5 -21 -8 -39 -6
-24 4 -28 2 -17 -5 13 -9 13 -11 -2 -11 -10 0 -18 8 -18 18 -1 16 -1 16 -11
-1 -5 -9 -7 -23 -3 -30 4 -6 -1 -4 -12 5 -16 14 -23 15 -32 6 -7 -7 -12 -18
-12 -25 0 -7 -5 -13 -11 -13 -6 0 -7 -5 -2 -12 4 -7 8 -19 9 -25 1 -7 9 -20
18 -29 9 -8 14 -20 10 -25 -3 -5 -2 -8 3 -7 4 2 9 -1 10 -5 3 -14 37 -36 47
-30 5 4 7 2 3 -3 -3 -5 54 -52 126 -105 238 -172 327 -231 320 -212 -6 15 -5
16 9 5 14 -11 17 -10 20 9 2 12 11 23 21 25 10 1 15 -2 10 -9 -3 -7 4 -3 16 8
15 13 21 27 18 43 -3 16 -1 20 5 14 6 -6 17 -8 24 -5 8 3 14 -1 14 -8 0 -7 3
-10 6 -7 3 4 0 17 -7 30 -11 21 -11 22 5 9 14 -12 16 -12 10 4 -6 14 -4 16 6
10 9 -5 11 -4 6 4 -4 6 -3 17 2 24 5 7 8 20 7 30 -3 17 -2 17 20 3 14 -9 64
-40 112 -69 48 -30 174 -110 278 -179 309 -204 403 -257 600 -338 55 -23 90
-39 78 -37 -15 3 -20 1 -16 -9 3 -8 10 -11 17 -7 7 4 7 2 -1 -7 -9 -10 -7 -17
12 -32 20 -15 23 -23 15 -37 -5 -10 -6 -21 -2 -25 3 -4 0 -4 -9 -1 -10 4 -15
-1 -15 -15 0 -14 5 -19 15 -15 9 3 12 3 8 -1 -4 -4 5 -16 20 -27 30 -20 21
-19 -39 7 -33 14 -36 14 -34 -1 2 -8 13 -26 25 -39 l22 -23 -28 8 c-25 7 -29
5 -30 -11 -2 -17 0 -18 14 -6 13 10 15 10 9 0 -4 -7 -2 -20 6 -29 7 -9 12 -19
11 -22 0 -3 3 -5 8 -4 5 2 8 0 8 -5 -1 -4 0 -9 1 -12 10 -27 6 -38 -14 -36
-13 2 -28 6 -34 10 -18 11 -103 15 -96 5 3 -5 10 -7 15 -4 5 4 22 -4 37 -16
l27 -21 -25 6 c-24 6 -24 6 2 -7 14 -7 35 -21 46 -31 12 -10 26 -15 33 -10 8
5 10 3 4 -5 -5 -8 -20 -11 -44 -7 -27 4 -31 3 -15 -3 12 -5 25 -15 30 -22 5
-8 3 -10 -5 -4 -10 5 -9 2 0 -13 7 -12 16 -19 20 -16 4 2 10 0 13 -5 4 -5 -5
-8 -19 -6 -14 1 -25 1 -25 0 0 -2 25 -17 55 -34 53 -30 72 -47 39 -34 -13 5
-14 3 -6 -13 10 -18 12 -26 12 -40 0 -4 8 0 18 7 15 13 16 12 3 -3 -7 -10 -10
-18 -6 -18 4 0 3 -6 -3 -12 -6 -7 -10 -17 -10 -23 0 -5 -5 -11 -11 -13 -6 -2
-8 8 -5 25 3 15 2 25 -1 21 -4 -3 -7 -12 -9 -20 -1 -7 -5 -19 -10 -26 -4 -7
-5 -16 -2 -19 3 -4 6 0 7 8 0 8 4 5 8 -6 11 -26 147 -76 296 -110 165 -37 159
-39 123 46 -34 81 -98 328 -122 469 -15 90 -38 280 -50 417 -52 574 -57 616
-107 863 -101 497 -219 863 -424 1315 -98 216 -174 364 -440 860 -207 387
-279 537 -330 689 -33 99 -66 264 -67 338 0 21 -5 38 -10 38 -6 0 -5 7 2 15 7
8 10 15 7 15 -3 0 -13 -10 -21 -22z m-179 -693 c0 -8 -4 -12 -9 -9 -5 3 -6 10
-3 15 9 13 12 11 12 -6z m-480 -157 c-2 -13 -4 -3 -4 22 0 25 2 35 4 23 2 -13
2 -33 0 -45z m0 -190 c-2 -29 -3 -6 -3 52 0 58 1 81 3 53 2 -29 2 -77 0 -105z
m10 -130 c-3 -7 -5 -2 -5 12 0 14 2 19 5 13 2 -7 2 -19 0 -25z m653 12 c0 -5
-7 -7 -15 -4 -8 4 -12 10 -9 15 6 11 24 2 24 -11z m56 -22 c4 -7 3 -8 -4 -4
-7 4 -12 2 -12 -3 0 -6 -5 -11 -11 -11 -8 0 -8 5 1 15 15 18 17 18 26 3z m4
-73 c10 -13 11 -18 1 -28 -10 -9 -11 -8 -5 6 4 12 2 17 -6 15 -7 -2 -15 3 -17
10 -7 17 12 15 27 -3z m35 -35 c3 -5 1 -10 -4 -10 -6 0 -11 5 -11 10 0 6 2 10
4 10 3 0 8 -4 11 -10z m540 -1250 c3 -6 -1 -7 -9 -4 -18 7 -21 14 -7 14 6 0
13 -4 16 -10z m25 -98 c0 -8 -1 -13 -3 -11 -1 2 -9 12 -16 22 -12 15 -12 17 3
11 9 -3 16 -13 16 -22z m-19 -189 c13 -16 12 -17 -3 -4 -17 13 -22 21 -14 21
2 0 10 -8 17 -17z m-671 -68 c19 -19 32 -35 29 -35 -3 0 -20 16 -39 35 -19 19
-32 35 -29 35 3 0 20 -16 39 -35z m61 -62 c9 -9 7 -11 -5 -9 -9 1 -21 7 -27
13 -9 9 -7 11 5 9 9 -1 21 -7 27 -13z m835 -165 c16 -18 20 -25 8 -15 -11 9
-24 14 -28 10 -9 -9 -27 18 -20 29 7 11 7 11 40 -24z m59 -56 c-3 -3 -11 0
-18 7 -9 10 -8 11 6 5 10 -3 15 -9 12 -12z m-365 -216 c35 -28 67 -51 71 -51
15 0 193 -170 274 -261 184 -207 293 -377 301 -472 3 -25 7 -50 10 -56 15 -33
-24 32 -72 119 -100 184 -304 434 -490 601 -49 43 -104 94 -122 112 -19 17
-37 32 -42 32 -12 0 -31 26 -24 33 9 8 16 4 94 -57z m-568 -219 c5 -27 -9 -51
-32 -55 -11 -2 -10 2 3 12 13 10 17 23 14 45 -6 36 8 33 15 -2z m-95 -129 c-3
-8 -6 -5 -6 6 -1 11 2 17 5 13 3 -3 4 -12 1 -19z"/>
<path d="M2303 7148 c1 -7 -4 -12 -10 -13 -7 0 -13 -3 -13 -7 0 -10 2 -11 23
-3 18 8 24 35 7 35 -5 0 -9 -5 -7 -12z"/>
<path d="M2780 6858 c0 -20 185 -418 194 -418 4 0 -9 30 -27 68 -34 67 -54
118 -62 163 -3 13 -9 25 -15 27 -5 2 -10 15 -10 28 0 14 -4 22 -10 19 -5 -3
-10 0 -10 7 0 13 -60 119 -60 106z"/>
<path d="M2833 6850 c3 -8 21 -53 40 -100 18 -47 46 -120 62 -163 15 -42 30
-76 32 -74 6 7 -98 288 -119 321 -11 17 -18 24 -15 16z"/>
<path d="M1895 6570 c-3 -5 -1 -10 4 -10 6 0 11 5 11 10 0 6 -2 10 -4 10 -3 0
-8 -4 -11 -10z"/>
<path d="M2154 6428 c-4 -7 -4 -10 1 -6 4 4 14 3 21 -3 8 -7 14 -6 20 2 4 8 3
9 -4 5 -7 -4 -12 -2 -12 3 0 15 -17 14 -26 -1z"/>
<path d="M2199 6383 c-13 -17 -13 -17 6 -3 11 8 22 16 24 17 2 2 0 3 -6 3 -6
0 -17 -8 -24 -17z"/>
<path d="M4749 6357 c6 -8 7 -18 3 -23 -4 -5 -3 -5 2 -1 16 13 15 37 -1 37
-12 0 -13 -3 -4 -13z"/>
<path d="M4875 6270 c-3 -5 -2 -10 4 -10 5 0 13 5 16 10 3 6 2 10 -4 10 -5 0
-13 -4 -16 -10z"/>
<path d="M4876 6231 c-3 -5 1 -14 8 -20 12 -10 13 -8 9 8 -6 23 -9 25 -17 12z"/>
<path d="M2480 5696 c0 -2 7 -9 15 -16 9 -7 15 -8 15 -2 0 5 -7 12 -15 16 -8
3 -15 4 -15 2z"/>
<path d="M3481 5350 c-1 -3 7 -27 18 -55 10 -27 28 -82 39 -121 24 -87 14
-118 -17 -51 -32 69 -34 57 -4 -20 32 -83 126 -366 149 -448 10 -33 19 -55 21
-48 5 15 -71 390 -97 473 -11 36 -20 75 -20 88 0 13 -4 21 -9 18 -5 -4 -7 4
-3 16 3 14 2 19 -6 14 -7 -4 -12 -1 -13 6 -1 13 -57 137 -58 128z"/>
<path d="M3601 5314 c-1 -6 6 -34 15 -64 9 -29 17 -61 19 -69 2 -9 8 -29 14
-44 6 -16 11 -38 10 -50 -1 -13 -8 1 -18 31 -9 29 -21 49 -26 45 -4 -4 -5 -3
-2 4 4 6 2 17 -5 25 -7 7 -14 20 -16 28 -5 22 -19 33 -19 15 0 -8 3 -15 6 -15
4 0 8 -12 9 -27 1 -14 9 -34 17 -43 8 -8 21 -33 30 -53 9 -21 20 -35 25 -32 6
3 10 -4 10 -16 0 -12 3 -20 6 -16 3 3 0 32 -6 64 -13 62 -68 235 -69 217z"/>
<path d="M2709 5278 c-1 -5 -2 -11 -3 -15 -1 -5 -5 -14 -10 -21 -5 -9 -3 -19
6 -28 22 -22 38 13 21 46 -7 14 -13 22 -14 18z m12 -51 c-13 -13 -26 -3 -16
12 3 6 11 8 17 5 6 -4 6 -10 -1 -17z"/>
<path d="M1885 4830 c10 -11 20 -20 23 -20 3 0 -3 9 -13 20 -10 11 -20 20 -23
20 -3 0 3 -9 13 -20z"/>
<path d="M2145 4480 c10 -11 20 -20 23 -20 3 0 -3 9 -13 20 -10 11 -20 20 -23
20 -3 0 3 -9 13 -20z"/>
<path d="M3014 4486 c18 -14 15 -20 -6 -17 -4 0 -4 -7 -1 -17 6 -15 4 -15 -10
-4 -8 8 -13 21 -10 30 4 14 3 15 -6 2 -6 -9 -7 -18 -1 -24 6 -6 6 -14 -1 -22
-6 -8 -6 -14 0 -18 5 -3 18 5 28 18 14 17 22 21 29 12 5 -6 8 -9 7 -7 -2 2 1
9 7 16 6 8 -1 17 -23 29 -23 13 -27 13 -13 2z"/>
<path d="M3036 4211 c-3 -5 2 -15 12 -22 15 -12 16 -12 5 2 -7 9 -10 19 -6 22
3 4 4 7 0 7 -3 0 -8 -4 -11 -9z"/>
<path d="M1346 4123 c4 -27 15 -75 24 -108 10 -33 18 -73 17 -90 -1 -52 84
-436 120 -540 68 -197 183 -374 340 -526 119 -116 333 -246 562 -343 95 -40
95 -47 -11 111 -116 174 -220 293 -464 535 -231 228 -370 388 -359 415 2 8 1
12 -4 9 -10 -7 -74 89 -74 110 0 7 -7 16 -15 19 -8 3 -11 12 -8 21 3 8 2 12
-4 9 -6 -3 -10 -4 -10 -2 0 3 -7 21 -15 41 -9 21 -11 36 -5 36 5 0 10 -10 11
-22 0 -13 3 -17 6 -10 5 12 83 -102 83 -120 0 -5 8 -17 18 -27 9 -10 28 -35
42 -55 65 -94 163 -209 245 -286 352 -331 552 -566 686 -808 24 -43 24 -43 4
-59 -13 -10 -15 -14 -4 -10 9 3 21 2 28 -3 8 -4 1 -9 -19 -14 -18 -3 -36 -4
-40 -1 -4 3 -11 -2 -14 -11 -3 -8 -12 -14 -19 -12 -7 2 -27 -8 -43 -22 -29
-25 -30 -27 -15 -52 50 -83 425 -304 711 -418 101 -40 365 -120 443 -134 24
-5 37 -3 37 4 0 6 6 8 13 5 6 -4 3 1 -8 10 -20 17 -20 17 2 11 25 -8 40 9 24
28 -6 7 -7 16 -3 20 4 4 2 6 -3 4 -6 -2 -10 2 -10 7 0 6 6 9 13 7 8 -2 11 1 7
7 -3 6 -1 11 5 11 6 0 8 -11 4 -27 l-6 -28 14 25 c7 13 24 27 38 31 23 7 23 7
-7 8 -17 1 -35 6 -39 13 -5 7 -3 8 6 3 9 -5 11 -4 6 4 -5 7 -12 9 -19 3 -15
-11 -47 -12 -47 0 0 4 -5 8 -11 8 -5 0 -7 -6 -3 -12 4 -7 3 -9 -1 -5 -18 16
-13 37 8 37 39 0 131 11 137 16 2 3 -52 3 -122 0 -98 -4 -127 -3 -131 8 -3 7
1 13 9 13 7 0 10 -5 7 -11 -4 -6 1 -5 10 3 9 7 17 14 17 16 0 2 -18 4 -54 7
-14 1 -24 7 -23 12 1 6 -4 10 -12 11 -8 0 -15 8 -17 18 -1 9 2 15 7 11 5 -3 9
0 9 7 0 6 -8 9 -19 6 -14 -3 -18 -1 -14 9 3 8 8 12 12 10 4 -3 6 7 5 21 -1 33
-33 40 -54 12 -14 -18 -17 -18 -35 -4 -19 16 -19 16 3 5 17 -8 22 -8 23 2 0 7
2 21 4 30 3 15 0 16 -16 8 -10 -6 -19 -7 -19 -3 0 4 -5 2 -12 -5 -7 -7 -16
-12 -22 -12 -5 0 -1 6 9 14 11 8 24 12 30 9 5 -4 7 -3 3 2 -4 4 -2 15 5 24 11
14 10 14 -5 2 -10 -7 -18 -10 -18 -6 0 4 -7 2 -15 -5 -13 -10 -18 -11 -28 -1
-9 10 -8 11 8 6 18 -6 18 -5 3 5 -10 6 -31 12 -48 13 -16 1 -30 5 -30 10 0 4
-11 7 -25 7 -14 0 -25 5 -25 10 0 6 -5 10 -11 10 -5 0 -7 -4 -4 -10 11 -17 -7
-11 -21 8 -13 16 -14 16 -8 -3 5 -18 4 -18 -6 -2 -6 9 -8 23 -4 30 5 8 2 7 -9
-2 -9 -7 -17 -10 -17 -5 0 5 -5 2 -10 -6 -8 -13 -10 -12 -10 3 0 9 5 17 11 17
5 0 7 5 3 11 -7 12 37 2 46 -10 3 -4 18 -8 34 -9 16 -1 38 -10 49 -20 11 -9
17 -11 12 -3 -10 18 36 5 51 -16 7 -8 14 -10 15 -4 3 6 30 3 74 -8 64 -17 245
-37 245 -28 0 3 -19 17 -42 32 -24 16 -100 74 -170 131 -220 177 -646 465
-988 667 -348 206 -416 253 -531 367 -184 184 -386 505 -475 758 -23 65 -37
67 -28 5z m81 -270 c1 -22 -1 -24 -8 -10 -6 9 -7 22 -4 27 9 14 10 13 12 -17z
m1193 -1418 c0 -2 -9 -3 -19 -2 -11 0 -18 5 -15 9 4 6 34 0 34 -7z m-156 -74
c3 -5 0 -11 -7 -14 -8 -3 -14 1 -14 9 0 16 13 19 21 5z m-24 -37 c0 -2 -7 -4
-15 -4 -8 0 -15 4 -15 10 0 5 7 7 15 4 8 -4 15 -8 15 -10z m575 -44 c3 -6 -1
-7 -9 -4 -18 7 -21 14 -7 14 6 0 13 -4 16 -10z m16 -27 c-12 -20 -14 -14 -5
12 4 9 9 14 11 11 3 -2 0 -13 -6 -23z m224 -123 c3 -6 -1 -7 -9 -4 -18 7 -21
14 -7 14 6 0 13 -4 16 -10z m137 -42 c-3 -14 -7 -16 -18 -7 -20 16 -17 28 5
26 12 -1 17 -7 13 -19z m-27 -37 c3 -5 2 -12 -3 -15 -5 -3 -9 1 -9 9 0 17 3
19 12 6z m226 -194 c-6 -8 -8 -17 -4 -20 3 -4 1 -7 -5 -7 -15 0 -15 13 0 28
16 16 23 15 9 -1z m-7 -82 c3 -8 1 -15 -4 -15 -6 0 -10 7 -10 15 0 8 2 15 4
15 2 0 6 -7 10 -15z"/>
<path d="M3140 4162 c0 -7 -3 -11 -7 -9 -5 1 -8 -2 -8 -8 0 -5 4 -9 9 -7 5 2
18 -5 30 -15 21 -18 21 -18 4 2 -9 11 -17 24 -16 28 0 5 -3 11 -6 15 -3 3 -6
0 -6 -6z"/>
<path d="M1763 3935 c-10 -11 -9 -13 6 -12 11 1 17 7 14 14 -6 16 -5 16 -20
-2z"/>
<path d="M1725 3700 c10 -11 20 -20 23 -20 3 0 -3 9 -13 20 -10 11 -20 20 -23
20 -3 0 3 -9 13 -20z"/>
<path d="M1779 3658 c-7 -25 -5 -36 7 -31 8 3 17 -5 23 -19 5 -14 24 -35 43
-47 18 -13 24 -20 14 -17 -19 7 -19 6 -1 -14 10 -11 27 -20 37 -20 11 0 23
-11 28 -25 5 -14 16 -28 25 -31 8 -3 12 -10 9 -15 -3 -5 -2 -8 3 -7 4 2 22 -3
40 -11 23 -9 30 -18 26 -29 -4 -13 -2 -13 9 2 11 13 17 16 22 7 4 -6 12 -9 17
-6 5 4 9 2 9 -4 0 -5 -6 -12 -12 -14 -8 -3 -7 -6 4 -6 9 -1 20 4 23 9 5 8 11
8 20 0 10 -8 15 -8 21 1 5 9 11 7 21 -6 7 -11 13 -14 13 -8 0 16 -50 54 -61
47 -5 -3 -9 0 -9 6 0 11 -140 106 -152 102 -5 -1 -8 2 -8 7 0 14 -143 116
-159 112 -7 -1 -10 2 -6 8 3 6 4 11 1 11 -3 0 -6 -1 -7 -2z m42 -35 c13 -16
12 -17 -3 -4 -10 7 -18 15 -18 17 0 8 8 3 21 -13z m139 -137 c0 -3 -4 -8 -10
-11 -5 -3 -10 -1 -10 4 0 6 5 11 10 11 6 0 10 -2 10 -4z"/>
<path d="M3321 3625 c31 -38 54 -67 73 -88 17 -20 45 -61 88 -126 9 -14 36
-60 59 -101 23 -41 44 -69 47 -62 2 7 -1 18 -7 26 -7 8 -7 17 -1 24 7 9 7 9
-1 3 -9 -7 -27 16 -62 77 -57 100 -118 182 -173 232 -21 19 -31 26 -23 15z"/>
<path d="M2240 3421 c0 -6 4 -13 10 -16 6 -3 7 1 4 9 -7 18 -14 21 -14 7z"/>
<path d="M3575 3220 c3 -5 8 -10 11 -10 2 0 4 5 4 10 0 6 -5 10 -11 10 -5 0
-7 -4 -4 -10z"/>
<path d="M3455 2640 c-3 -5 1 -10 10 -10 9 0 13 5 10 10 -3 6 -8 10 -10 10 -2
0 -7 -4 -10 -10z"/>
<path d="M6245 2610 c3 -5 12 -7 20 -3 21 7 19 13 -6 13 -11 0 -18 -4 -14 -10z"/>
<path d="M7862 2560 c0 -14 2 -19 5 -12 2 6 2 18 0 25 -3 6 -5 1 -5 -13z"/>
<path d="M6350 2565 c5 -22 -1 -25 -21 -14 -16 8 -24 8 -33 -2 -8 -9 -8 -10 1
-5 6 3 14 2 17 -3 4 -5 14 -8 24 -6 9 1 24 -3 32 -9 13 -10 13 -9 0 8 -8 11
-13 21 -12 23 2 3 1 8 -3 11 -4 4 -6 3 -5 -3z"/>
<path d="M7840 2545 c0 -5 5 -17 10 -25 5 -8 10 -10 10 -5 0 6 -5 17 -10 25
-5 8 -10 11 -10 5z"/>
<path d="M6388 2463 c7 -3 16 -2 19 1 4 3 -2 6 -13 5 -11 0 -14 -3 -6 -6z"/>
<path d="M2285 2360 c11 -12 19 -25 18 -29 -2 -3 1 -6 6 -6 5 0 13 -4 18 -9 5
-5 3 -6 -4 -2 -7 4 -13 3 -13 -2 0 -6 -7 -13 -16 -16 -8 -3 -13 -2 -10 3 3 5
-2 15 -11 22 -14 12 -15 11 -9 -9 7 -20 5 -21 -19 -12 -17 7 -24 7 -20 0 3 -6
1 -10 -5 -10 -7 0 -10 -7 -6 -15 3 -8 1 -15 -4 -15 -6 0 -10 -5 -10 -11 0 -5
6 -7 13 -3 8 5 8 2 -2 -9 -12 -15 -5 -26 65 -95 44 -44 140 -124 214 -179 444
-330 924 -528 1440 -594 135 -18 541 -18 680 -1 58 7 193 28 300 47 319 56
421 68 610 68 158 0 293 -13 377 -39 10 -3 0 5 -21 16 -56 32 -253 93 -407
129 -246 56 -321 61 -864 61 -511 0 -666 7 -870 41 -337 55 -694 179 -938 325
-99 60 -324 211 -432 292 -55 41 -91 64 -80 52z"/>
<path d="M3940 2321 c0 -6 4 -13 10 -16 6 -3 7 1 4 9 -7 18 -14 21 -14 7z"/>
<path d="M3429 2083 c-13 -16 -12 -17 4 -4 16 13 21 21 13 21 -2 0 -10 -8 -17
-17z"/>
<path d="M3435 2060 c-3 -5 -3 -10 1 -10 4 0 -1 -10 -12 -22 -10 -13 -15 -20
-10 -16 5 4 18 3 29 -3 15 -9 18 -8 12 2 -6 9 -3 11 8 6 11 -4 14 -2 11 8 -3
8 -12 11 -19 8 -10 -3 -13 1 -10 16 4 23 0 27 -10 11z"/>
</g>
</svg>
